<?xml version="1.0" encoding="UTF-8" standalone="no"?>
<!-- Created with Fritzing (http://www.fritzing.org/) -->

<svg
   version="1.2"
   x="0in"
   y="0in"
   width="0.774066in"
   height="1.4236in"
   viewBox="0 0 55.7327 102.499"
   id="svg371"
   sodipodi:docname="dr4184.svg"
   inkscape:version="1.2.2 (732a01da63, 2022-12-09)"
   inkscape:export-filename="dr4184.svg"
   inkscape:export-xdpi="96"
   inkscape:export-ydpi="96"
   xmlns:inkscape="http://www.inkscape.org/namespaces/inkscape"
   xmlns:sodipodi="http://sodipodi.sourceforge.net/DTD/sodipodi-0.dtd"
   xmlns="http://www.w3.org/2000/svg"
   xmlns:svg="http://www.w3.org/2000/svg">
  <defs
     id="defs375" />
  <sodipodi:namedview
     id="namedview373"
     pagecolor="#505050"
     bordercolor="#eeeeee"
     borderopacity="1"
     inkscape:showpageshadow="0"
     inkscape:pageopacity="0"
     inkscape:pagecheckerboard="0"
     inkscape:deskcolor="#505050"
     inkscape:document-units="in"
     showgrid="false"
     inkscape:zoom="6.1244382"
     inkscape:cx="-1.0613218"
     inkscape:cy="97.886529"
     inkscape:window-width="1920"
     inkscape:window-height="1018"
     inkscape:window-x="-6"
     inkscape:window-y="-6"
     inkscape:window-maximized="1"
     inkscape:current-layer="g208" />
  <g
     partID="854385780"
     id="g369">
    <g
       id="breadboard">
      <rect
         style="fill:#960000;fill-opacity:1;stroke-width:3.30374"
         id="rect4841"
         width="46.657276"
         height="96.008675"
         x="4.408565"
         y="6.000555" />
      <g
         transform="rotate(-90)"
         id="g4">
        <text
           id="text1200"
           font-family="OCRA"
           fill="#ffffff"
           x="-92.9179"
           gorn="0.3.22"
           y="49.6703"
           font-size="2.52px">DR4184</text>
      </g>
      <g
         transform="rotate(-90)"
         id="g7">
        <text
           id="text3685"
           font-family="OCRA"
           fill="#ffffff"
           x="-81.9977"
           gorn="0.3.22"
           y="46.5203"
           font-size="3.49999">LED</text>
      </g>
      <g
         transform="matrix(0,2.0381649,-1.9293663,0,27.484644,6.1241676)"
         id="g10">
        <polygon
           id="background"
           points="14.4,5.21324 14.4,2.87631 14.1129,2.87631 14.1129,0 0,0 0,2.87631 0.287157,2.87631 0.287157,5.21324 0,5.21324 0,11.3477 14.1129,11.3477 14.1129,5.21324 "
           fill="#254e89"
           gorn="0.0.0"
           transform="matrix(1,0,0,2.016439,0,-11.534245)" />
      </g>
      <g
         id="g823"
         transform="translate(21.063128,16.287186)">
        <path
           d="m 14.5254,8.46425 c 0,3.14658 2.60189,5.7088 5.8074,5.7088 L 20.3327,2.75321 C 17.12491,2.75095 14.5253,5.31092 14.5253,8.46426 Z"
           id="path7"
           fill="#3a5c8e"
           stroke-width="0.165117" />
        <path
           d="m 26.1379,8.46425 c 0,-3.15107 -2.60419,-5.71105 -5.80511,-5.71105 V 14.173 c 3.2055,-1.7e-5 5.80511,-2.55773 5.80511,-5.7088 z"
           id="path9"
           fill="#123c66"
           stroke-width="0.165117" />
        <path
           d="m 15.6228,8.46425 c 0,-2.55773 2.11262,-4.63447 4.71451,-4.63447 2.59732,0 4.71222,2.07674 4.71222,4.63447 0,2.55548 -2.11262,4.63222 -4.71222,4.63222 -2.60189,-0.0023 -4.71451,-2.079 -4.71451,-4.63222 z"
           id="path13"
           fill="#8b8b8b"
           stroke-width="0.165117" />
        <path
           d="m 24.9581,8.46425 c 0,2.51052 -2.07146,4.54231 -4.62076,4.54231 -2.5516,0 -4.62306,-2.0318 -4.62306,-4.54231 0,-2.51052 2.07146,-4.54682 4.62306,-4.54682 2.5493,-0.00225 4.62076,2.03404 4.62076,4.54682 m 0.169194,0 c 0,-2.60042 -2.15149,-4.71986 -4.79682,-4.71986 -2.64534,0 -4.8014,2.11495 -4.8014,4.71986 0,2.59593 2.14919,4.71537 4.8014,4.71537 2.64535,-0.0022 4.79683,-2.11721 4.79682,-4.71537 z"
           id="path15"
           stroke-width="0.165117" />
        <path
           d="M 21.4188,4.05454 C 21.068983,3.971372 20.703167,3.915181 20.33048,3.915181 c -0.377253,0 -0.736214,0.056191 -1.09518,0.139349 l 1.0883,8.81497 c 0.349816,0.08316 0.713349,0.139348 1.09518,0.139348 0.37268,0 0.731642,-0.0517 1.08832,-0.139348 z"
           id="path19"
           fill="#707070"
           stroke-width="0.165117" />
        <g
           transform="rotate(90)"
           id="g24">
          <rect
             id="rect23"
             width="2.1396799"
             fill="#545252"
             x="7.3921599"
             stroke-width="0"
             height="7.8376999"
             y="-24.2516" />
        </g>
        <g
           transform="rotate(90)"
           id="g27">
          <rect
             id="rect25"
             width="6.7404299"
             fill="#545252"
             x="5.0929098"
             stroke-width="0"
             height="2.17434"
             y="-21.4188" />
        </g>
        <path
           d="m 24.5763,8.46425 c 0,2.29476 -1.90456,4.16697 -4.23895,4.16697 -2.33896,0 -4.24122,-1.87221 -4.24122,-4.16697 0,-2.29925 1.90455,-4.17146 4.24122,-4.17146 2.33439,-0.00228 4.23895,1.86995 4.23895,4.17146 m 0.381816,0 c 0,-2.51052 -2.07146,-4.54681 -4.62076,-4.54681 -2.5516,0 -4.62306,2.03629 -4.62306,4.54681 0,2.51052 2.07146,4.54231 4.62306,4.54231 2.5493,0.0045 4.62076,-2.0318 4.62076,-4.54231 z"
           id="path29"
           stroke-width="0.165117" />
      </g>
      <g
         id="g811"
         transform="rotate(90,9.3092133,13.510085)">
        <g
           transform="rotate(90)"
           id="g31">
          <rect
             id="rect38"
             width="11.4221"
             fill="#103656"
             x="2.7509601"
             stroke-width="0"
             height="4.6482"
             y="-12.5476" />
        </g>
        <g
           transform="rotate(90)"
           id="g34">
          <rect
             id="rect40"
             width="11.4221"
             fill="#254e89"
             x="2.7509601"
             stroke-width="0"
             height="4.82197"
             y="-7.89712" />
        </g>
        <g
           transform="rotate(90)"
           id="g37">
          <rect
             id="rect42"
             width="5.5919299"
             fill="#254e89"
             x="5.6660299"
             stroke-width="0"
             height="5.7913899"
             y="-7.8376698" />
        </g>
        <g
           transform="rotate(90)"
           id="g40">
          <rect
             id="rect44"
             width="10.4916"
             fill="#8d8c8c"
             x="3.2184501"
             stroke-width="0"
             height="8.7293997"
             y="-12.1407" />
        </g>
        <path
           d="m 3.92341,8.46425 c 0,2.48805 1.49986,4.51309 3.36097,4.51309 V 3.94217 C 5.42333,3.94666 3.92341,5.96946 3.92341,8.46425 Z"
           id="path46"
           fill="#a0a0a0"
           stroke-width="0.165117" />
        <path
           d="m 10.6293,8.46425 c 0,-2.49254 -1.49986,-4.52209 -3.35412,-4.52209 l -10e-6,9.03524 c 1.85436,-0.0022 3.35412,-2.02055 3.35412,-4.51309 z"
           id="path48"
           fill="#565656"
           stroke-width="0.165117" />
        <g
           transform="rotate(90)"
           id="g45">
          <ellipse
             id="ellipse50"
             rx="3.5016999"
             cx="8.4619904"
             fill="#383838"
             stroke-width="0"
             ry="2.6018901"
             cy="-7.27528" />
        </g>
        <g
           transform="matrix(0,2.29329,-2.29329,0,28.063,0.368545)"
           id="g48">
          <polygon
             id="polygon52"
             points="5.7549,7.4993 5.54321,7.43551 4.82483,8.38562 2.22081,8.38562 1.57201,7.46143 1.24271,7.43551 1.30446,6.9161 5.81763,6.9799 "
             fill="#919291" />
        </g>
        <g
           transform="rotate(90)"
           id="g52">
          <rect
             id="rect164"
             width="4.7063899"
             fill="#8c8c8c"
             x="6.1110601"
             stroke-width="0"
             height="3.441"
             y="-3.4432499" />
        </g>
      </g>
      <g
         transform="matrix(0, 2.29329, -2.29329, 0, 28.063, 16.8802)"
         id="g84" />
      <g
         id="g847"
         transform="translate(-7.1026823,-0.12246049)">
        <path
           d="m 41.2074,24.9276 c 0,-3.14658 -2.60189,-5.7088 -5.8074,-5.7088 v 11.4198 c 3.20779,0.0023 5.8074,-2.55771 5.8074,-5.71105 z"
           id="path2039"
           fill="#3a5c8e"
           stroke-width="0.165117" />
        <path
           d="m 29.5949,24.9276 c 0,3.15107 2.60419,5.71105 5.80511,5.71105 L 35.4,19.2189 c -3.2055,1.7e-5 -5.80511,2.55773 -5.80511,5.7088 z"
           id="path2041"
           fill="#123c66"
           stroke-width="0.165117" />
        <path
           d="m 40.1099,24.9277 c 0,2.55773 -2.11262,4.63447 -4.71451,4.63447 -2.59732,0 -4.71222,-2.07674 -4.71222,-4.63447 0,-2.55548 2.11262,-4.63222 4.71222,-4.63222 2.60189,0.0023 4.71451,2.079 4.71451,4.63222 z"
           id="path2043"
           fill="#8b8b8b"
           stroke-width="0.165117" />
        <path
           d="m 30.7746,24.9277 c 0,-2.51052 2.07146,-4.54231 4.62076,-4.54231 2.5516,0 4.62306,2.0318 4.62306,4.54231 0,2.51052 -2.07146,4.54682 -4.62306,4.54682 -2.5493,0.0022 -4.62076,-2.03404 -4.62076,-4.54682 m -0.169194,0 c 0,2.60042 2.15149,4.71986 4.79682,4.71986 2.64534,0 4.8014,-2.11495 4.8014,-4.71986 0,-2.59593 -2.14919,-4.71537 -4.8014,-4.71537 -2.64535,0.0022 -4.79683,2.11721 -4.79682,4.71537 z"
           id="path2045"
           stroke-width="0.165117" />
        <path
           d="m 34.314,29.3373 c 0.349816,0.08317 0.715632,0.139358 1.08832,0.139358 0.377253,0 0.736214,-0.05619 1.09518,-0.139349 L 35.4091,20.5224 c -0.349816,-0.08316 -0.713349,-0.139349 -1.09518,-0.139349 -0.37268,0 -0.731642,0.0517 -1.08832,0.139349 z"
           id="path2047"
           fill="#707070"
           stroke-width="0.165117" />
        <g
           transform="rotate(-90)"
           id="g105">
          <rect
             id="rect2049"
             width="2.1396799"
             fill="#545252"
             x="-25.999701"
             stroke-width="0"
             height="7.8376999"
             y="31.4811" />
        </g>
        <g
           transform="rotate(-90)"
           id="g108">
          <rect
             id="rect2051"
             width="6.7404299"
             fill="#545252"
             x="-28.299"
             stroke-width="0"
             height="2.17434"
             y="34.313999" />
        </g>
        <path
           d="m 31.1565,24.9277 c 0,-2.29476 1.90456,-4.16697 4.23895,-4.16697 2.33896,0 4.24122,1.87221 4.24122,4.16697 0,2.29925 -1.90455,4.17146 -4.24122,4.17146 -2.33439,0.0023 -4.23895,-1.86995 -4.23895,-4.17146 m -0.381816,0 c 0,2.51052 2.07146,4.54681 4.62076,4.54681 2.5516,0 4.62306,-2.03629 4.62306,-4.54681 0,-2.51052 -2.07146,-4.54231 -4.62306,-4.54231 -2.5493,-0.0045 -4.62076,2.0318 -4.62076,4.54231 z"
           id="path2053"
           stroke-width="0.165117" />
      </g>
      <g
         id="g835"
         transform="translate(-21.185588,16.164726)">
        <path
           d="m 41.2074,8.41594 c 0,-3.14658 -2.60189,-5.7088 -5.8074,-5.7088 v 11.4198 c 3.20779,0.0022 5.8074,-2.55771 5.8074,-5.71105 z"
           id="path2077"
           fill="#3a5c8e"
           stroke-width="0.165117" />
        <path
           d="m 29.5949,8.41594 c 0,3.15107 2.60419,5.71105 5.80511,5.71105 L 35.4,2.70717 c -3.2055,1.81e-5 -5.80511,2.55773 -5.80511,5.7088 z"
           id="path2079"
           fill="#123c66"
           stroke-width="0.165117" />
        <path
           d="m 40.1099,8.41597 c 0,2.55773 -2.11262,4.63447 -4.71451,4.63447 -2.59732,0 -4.71222,-2.07674 -4.71222,-4.63447 0,-2.55548 2.11262,-4.63222 4.71222,-4.63222 2.60189,0.00223 4.71451,2.079 4.71451,4.63222 z"
           id="path2081"
           fill="#8b8b8b"
           stroke-width="0.165117" />
        <path
           d="m 30.7746,8.41597 c 0,-2.51052 2.07146,-4.54231 4.62076,-4.54231 2.5516,0 4.62306,2.03179 4.62306,4.54231 0,2.51052 -2.07146,4.54682 -4.62306,4.54682 -2.5493,0.0022 -4.62076,-2.03404 -4.62076,-4.54682 m -0.169194,0 c 0,2.60042 2.15149,4.71986 4.79682,4.71986 2.64534,0 4.8014,-2.11495 4.8014,-4.71986 0,-2.59593 -2.14919,-4.71537 -4.8014,-4.71537 -2.64535,0.00223 -4.79682,2.11721 -4.79682,4.71537 z"
           id="path2083"
           stroke-width="0.165117" />
        <path
           d="m 34.314,12.8256 c 0.349816,0.08318 0.715632,0.139352 1.08832,0.139352 0.377253,0 0.736214,-0.05619 1.09518,-0.139352 L 35.4091,4.01075 C 35.059284,3.927589 34.695751,3.871398 34.31392,3.871398 c -0.37268,0 -0.731642,0.051701 -1.08832,0.139352 z"
           id="path2085"
           fill="#707070"
           stroke-width="0.165117" />
        <g
           transform="rotate(-90)"
           id="g141">
          <rect
             id="rect2087"
             width="2.1396799"
             fill="#545252"
             x="-9.48804"
             stroke-width="0"
             height="7.8376999"
             y="31.4811" />
        </g>
        <g
           transform="rotate(-90)"
           id="g144">
          <rect
             id="rect2089"
             width="6.7404299"
             fill="#545252"
             x="-11.7873"
             stroke-width="0"
             height="2.17434"
             y="34.313999" />
        </g>
        <path
           d="m 31.1565,8.41597 c 0,-2.29476 1.90456,-4.16697 4.23895,-4.16697 2.33896,0 4.24122,1.87221 4.24122,4.16697 0,2.29925 -1.90455,4.17146 -4.24122,4.17146 -2.33439,0.0022 -4.23895,-1.86995 -4.23895,-4.17146 m -0.381816,0 c 0,2.51052 2.07146,4.54681 4.62076,4.54681 2.5516,0 4.62306,-2.03629 4.62306,-4.54681 0,-2.51052 -2.07146,-4.54231 -4.62306,-4.54231 -2.5493,-0.00447 -4.62076,2.03179 -4.62076,4.54231 z"
           id="path2091"
           stroke-width="0.165117" />
      </g>
      <circle
         id="path4155"
         fill-opacity="1"
         cx="7.96492"
         fill="#ffffff"
         stroke-width="0.072"
         r="2.88"
         cy="97.8267" />
      <rect
         id="rect441"
         width="2.94005"
         fill="#999999"
         x="20.0671"
         fill-rule="evenodd"
         height="10.5002"
         stroke-width="0.750002"
         y="57.7835" />
      <rect
         id="rect439"
         width="2.94005"
         fill="#999999"
         x="14.4243"
         fill-rule="evenodd"
         height="10.5002"
         stroke-width="0.750002"
         y="56.1501" />
      <g
         id="g771"
         transform="rotate(-90,38.434525,21.499097)">
        <g
           transform="rotate(-90)"
           id="g112">
          <rect
             id="rect2055"
             width="11.4221"
             fill="#103656"
             x="-30.6409"
             stroke-width="0"
             height="4.6482"
             y="43.185101" />
        </g>
        <g
           transform="rotate(-90)"
           id="g115">
          <rect
             id="rect2057"
             width="11.4221"
             fill="#254e89"
             x="-30.6409"
             stroke-width="0"
             height="4.82197"
             y="47.835602" />
        </g>
        <g
           transform="rotate(-90)"
           id="g118">
          <rect
             id="rect2059"
             width="5.5919299"
             fill="#254e89"
             x="-27.725901"
             stroke-width="0"
             height="5.7913899"
             y="47.8951" />
        </g>
        <g
           transform="rotate(-90)"
           id="g121">
          <rect
             id="rect2061"
             width="10.4916"
             fill="#8d8c8c"
             x="-30.173401"
             stroke-width="0"
             height="8.7293997"
             y="43.592098" />
        </g>
        <path
           d="m 51.8093,24.9276 c 0,-2.48805 -1.49986,-4.51309 -3.36097,-4.51309 v 9.03521 c 1.86105,-0.0045 3.36097,-2.02729 3.36097,-4.52209 z"
           id="path2063"
           fill="#a0a0a0"
           stroke-width="0.165117" />
        <path
           d="m 45.1035,24.9276 c 0,2.49254 1.49986,4.52209 3.35412,4.52209 L 48.4575,20.4146 c -1.85436,0.0022 -3.35412,2.02055 -3.35412,4.51309 z"
           id="path2065"
           fill="#565656"
           stroke-width="0.165117" />
        <g
           transform="rotate(-90)"
           id="g126">
          <ellipse
             rx="3.5016999"
             id="ellipse2067"
             cx="-24.929899"
             fill="#383838"
             stroke-width="0"
             cy="48.4575"
             ry="2.6018901" />
        </g>
        <g
           transform="matrix(0,-2.29329,2.29329,0,27.6697,33.0234)"
           id="g129">
          <polygon
             id="polygon2231"
             points="1.57201,7.46143 1.24271,7.43551 1.30446,6.9161 5.81763,6.9799 5.7549,7.4993 5.54321,7.43551 4.82483,8.38562 2.22081,8.38562 "
             fill="#919291" />
        </g>
        <g
           transform="rotate(-90)"
           id="g133">
          <rect
             id="rect168"
             width="4.7063899"
             fill="#8c8c8c"
             x="-27.2808"
             stroke-width="0"
             height="3.441"
             y="52.289501" />
        </g>
      </g>
      <rect
         id="rect437"
         width="2.94005"
         fill="#999999"
         x="8.03904"
         fill-rule="evenodd"
         height="10.5002"
         stroke-width="0.750002"
         y="57.932" />
      <rect
         id="rect51"
         width="18.4616"
         fill="#1a1a1a"
         stroke="none"
         fill-rule="evenodd"
         x="5.87303"
         stroke-width="0.983254"
         height="15.6195"
         type="MSShapeGroup"
         gorn="0.4.0.0.0.0.0.0.0.0.19"
         y="44.9479" />
      <path
         d="M22.5989,39.2315L15.1125,39.2315l0,0.484841c2.17333,0,1.25202,1.03033,1.25202,1.62058,-0.489611,0.740268,-0.680252,1.01817,-1.18462,1.0683l-0.067392,1.01559l7.48634,0z"
         id="path10-9"
         fill="#bfbcbc"
         stroke-width="0.568732" />
      <path
         d="m11.5533,40.8346c0,-0.590443,1.38787,-1.11863,3.5592,-1.11863l0,-0.484646L7.62617,39.2313l0,4.18776l7.60428,0l0.033696,-0.990324c-2.17133,0.00072,-1.83726,-3.3504,-2.02603,-3.17345z"
         id="path12-8"
         fill="#808080"
         stroke-width="0.568732" />
      <g
         transform="matrix(6.93272, 0, 0, 2.69137, 5.62905, 39.1346)"
         id="g179">
        <polygon
           id="polygon10-3"
           points="0.288072,0.036,0.036072,0.3258,0.036072,1.28628,0.288072,1.28628"
           fill="#cccccc"
           stroke-width="0.131664"
           gorn="0.0.11" />
      </g>
      <g
         transform="matrix(6.93272, 0, 0, 2.69137, 5.62905, 39.1346)"
         id="g182">
        <polygon
           id="polygon12-2"
           points="2.44778,1.28628,2.69978,1.28628,2.69978,0.3258,2.44778,0.036"
           fill="#999999"
           stroke-width="0.131664"
           gorn="0.0.12" />
      </g>
      <rect
         id="rect53-0"
         width="14.9737"
         fill="#b2b2b2"
         x="7.62617"
         stroke-width="0.568732"
         height="0.82356"
         gorn="0.0.23"
         y="39.2315" />
      <path
         d="M22.5999,39.8632L7.62718,39.8632l-1.74704,0.779767l0,2.58501l18.4668,0l0,-2.58501zm-7.90754,3.22289c-0.334895,-0.125345,-0.695173,-0.646013,-0.745582,-1.5446,-0.0290902,-0.518638,0.427699,-1.25749,1.16678,-1.19326,0.840809,0.0730728,1.16778,0.252634,1.23517,1.41887,-0.102105,1.16644,-1.08554,1.53264,-1.65637,1.31899z"
         id="path55-3"
         fill="#8c8c8c"
         stroke-width="0.568732"
         gorn="0.0.24" />
      <g
         transform="matrix(1,0,-0.0193597,0.99981258,0,0)"
         id="g187">
        <rect
           id="rect51-3"
           width="18.4549"
           fill="#333333"
           x="6.74021"
           stroke-width="0.568785"
           height="1.77534"
           gorn="0.0.22"
           y="43.221" />
      </g>
      <rect
         id="rect456"
         width="2.94005"
         fill="#999999"
         x="45.1416"
         fill-rule="evenodd"
         height="10.5002"
         stroke-width="0.750002"
         y="57.9592" />
      <rect
         id="rect458"
         width="2.94005"
         fill="#999999"
         x="39.4988"
         fill-rule="evenodd"
         height="10.5002"
         stroke-width="0.750002"
         y="56.3258" />
      <rect
         id="rect460"
         width="2.94005"
         fill="#999999"
         x="33.1135"
         fill-rule="evenodd"
         height="10.5002"
         stroke-width="0.750002"
         y="58.1077" />
      <rect
         id="rect462"
         width="18.4616"
         fill="#1a1a1a"
         stroke="none"
         fill-rule="evenodd"
         x="30.9475"
         stroke-width="0.983254"
         height="15.6195"
         type="MSShapeGroup"
         gorn="0.4.0.0.0.0.0.0.0.0.19"
         y="45.1236" />
      <path
         d="M47.6733,39.4072L40.1869,39.4072l0,0.484841c2.17333,0,1.25202,1.03033,1.25202,1.62058,-0.489611,0.740268,-0.680252,1.01817,-1.18462,1.0683l-0.067392,1.01559l7.48634,0z"
         id="path464"
         fill="#bfbcbc"
         stroke-width="0.568732" />
      <path
         d="m36.6278,41.0103c0,-0.590443,1.38787,-1.11863,3.5592,-1.11863l0,-0.484646L32.7006,39.407l0,4.18776l7.60428,0l0.033696,-0.990324c-2.17133,0.00072,-1.83726,-3.3504,-2.02603,-3.17345z"
         id="path466"
         fill="#808080"
         stroke-width="0.568732" />
      <g
         transform="matrix(6.93272, 0, 0, 2.69137, 30.7035, 39.3103)"
         id="g196">
        <polygon
           id="polygon468"
           points="0.036072,0.3258,0.036072,1.28628,0.288072,1.28628,0.288072,0.036"
           fill="#cccccc"
           stroke-width="0.131664"
           gorn="0.0.11" />
      </g>
      <g
         transform="matrix(6.93272, 0, 0, 2.69137, 30.7035, 39.3103)"
         id="g199">
        <polygon
           id="polygon470"
           points="2.69978,1.28628,2.69978,0.3258,2.44778,0.036,2.44778,1.28628"
           fill="#999999"
           stroke-width="0.131664"
           gorn="0.0.12" />
      </g>
      <rect
         id="rect472"
         width="14.9737"
         fill="#b2b2b2"
         x="32.7006"
         stroke-width="0.568732"
         height="0.82356"
         gorn="0.0.23"
         y="39.4072" />
      <path
         d="M47.6743,40.0389L32.7016,40.0389l-1.74704,0.779767l0,2.58501l18.4668,0l0,-2.58501zm-7.90754,3.22289c-0.334895,-0.125345,-0.695173,-0.646013,-0.745582,-1.5446,-0.0290902,-0.518638,0.427699,-1.25749,1.16678,-1.19326,0.840809,0.0730728,1.16778,0.252634,1.23517,1.41887,-0.102105,1.16644,-1.08554,1.53264,-1.65637,1.31899z"
         id="path474"
         fill="#8c8c8c"
         stroke-width="0.568732"
         gorn="0.0.24" />
      <g
         transform="matrix(1,0,-0.0193597,0.99981258,0,0)"
         id="g204">
        <rect
           id="rect476"
           width="18.4549"
           fill="#333333"
           x="31.8181"
           stroke-width="0.568785"
           height="1.77534"
           gorn="0.0.22"
           y="43.3967" />
      </g>
      <circle
         id="circle492"
         fill-opacity="1"
         cx="47.9227"
         fill="#ffffff"
         stroke-width="0.072"
         r="2.88"
         cy="97.8264" />
      <g
         transform="rotate(-90,-8.755893,-0.79599028)"
         id="g208">
        <text
           id="text494"
           font-family="OCRA"
           fill="#ffffff"
           x="24.15967"
           gorn="0.3.22"
           y="101.81033"
           font-size="3.49999px"
           transform="rotate(90)">GND</text>
        <text
           id="text494-2"
           font-family="OCRA"
           fill="#ffffff"
           x="38.113102"
           gorn="0.3.22"
           y="101.50784"
           font-size="3.49999px"
           transform="rotate(90)">Signal</text>
        <text
           id="text494-1"
           font-family="OCRA"
           fill="#ffffff"
           x="17.542847"
           gorn="0.3.22"
           y="43.31715"
           font-size="3.49999px"
           transform="rotate(90)"
           style="font-size:3.99999px">GND</text>
        <text
           id="text494-1-4"
           font-family="OCRA"
           fill="#ffffff"
           x="30.401146"
           gorn="0.3.22"
           y="43.324963"
           font-size="3.49999px"
           transform="rotate(90)"
           style="font-size:3.99999px">LOAD</text>
        <text
           id="text494-1-4-0"
           font-family="OCRA"
           fill="#ffffff"
           x="45.383579"
           gorn="0.3.22"
           y="43.324963"
           font-size="3.49999px"
           transform="rotate(90)"
           style="font-size:3.99999px">12V</text>
      </g>
      <g
         transform="scale(-1)"
         id="g211">
        <rect
           id="rect3670"
           width="10.902"
           fill="#ececec"
           x="-40.6611"
           height="4.13014"
           stroke-width="0.104544"
           y="-80.5701" />
      </g>
      <g
         transform="scale(-1)"
         id="g214">
        <rect
           opacity="0.2"
           id="rect3672"
           width="10.902"
           fill="#ffffff"
           x="-40.6611"
           height="0.070864"
           stroke-width="0.104544"
           enable-background="new    "
           y="-80.5701" />
      </g>
      <g
         transform="scale(-1)"
         id="g217">
        <rect
           id="rect3674"
           width="10.902"
           fill="#333333"
           x="-40.6611"
           height="1.23087"
           stroke-width="0.104544"
           y="-77.4428" />
      </g>
      <g
         transform="scale(-1)"
         id="g220">
        <rect
           opacity="0.2"
           id="rect3676"
           width="10.902"
           x="-40.6611"
           height="0.0492967"
           stroke-width="0.104544"
           enable-background="new    "
           y="-76.2536" />
      </g>
      <path
         d="m31.3425,80.5702l0,0,0,0l0.127279,0l0,0c0.109482,-0.386676,0.184755,-1.22626,0.184755,-1.65607,0,-0.448294,-0.0656906,-1.06758,-0.184755,-1.4712l0,0,0,0l-1.67375,7.2e-06l0,3.12726z"
         id="path3678"
         fill="#b3b3b3"
         stroke-width="0.104544" />
      <path
         d="m38.9573,80.4096l0,0.160214l1.67238,0l0,-3.12726L38.9559,77.4432c-0.120434,0.405151,-0.264129,1.0152,-0.264129,1.46966,0,0.533009,0.102635,1.03368,0.265495,1.49738z"
         id="path3680"
         fill="#b3b3b3"
         stroke-width="0.104544" />
      <path
         d="m29.7865,77.2798l1.67373,0l0.00957744,0.163303l-1.67375,0z"
         id="path3682"
         fill="#999999"
         stroke-width="0.104544" />
      <path
         d="m40.6214,77.2762l-1.67375,0l0.00957744,0.16637l1.67238,0l-0.008208,-0.16637z"
         id="path3684"
         fill="#999999"
         stroke-width="0.104544" />
      <g
         transform="scale(-1)"
         id="g227">
        <rect
           opacity="0.15"
           id="rect3686"
           width="1.67375"
           x="-40.6296"
           height="0.070864"
           stroke-width="0.104544"
           enable-background="new    "
           y="-76.2751" />
      </g>
      <g
         transform="scale(-1)"
         id="g230">
        <rect
           opacity="0.5"
           id="rect3688"
           width="1.67375"
           fill="#ffffff"
           x="-40.6296"
           height="0.070864"
           stroke-width="0.104544"
           enable-background="new    "
           y="-80.5701" />
      </g>
      <g
         transform="scale(-1)"
         id="g233">
        <rect
           opacity="0.15"
           id="rect3690"
           width="1.67512"
           x="-31.4685"
           height="0.070864"
           stroke-width="0.104544"
           enable-background="new    "
           y="-76.2751" />
      </g>
      <g
         transform="scale(-1)"
         id="g236">
        <rect
           opacity="0.5"
           id="rect3692"
           width="1.67512"
           fill="#ffffff"
           x="-31.4685"
           height="0.070864"
           stroke-width="0.104544"
           enable-background="new    "
           y="-80.5701" />
      </g>
      <line
         id="line3694"
         y1="76.2043"
         x1="39.6183"
         fill="none"
         stroke-width="0.104544"
         x2="39.6183"
         y2="76.2043" />
      <g
         transform="scale(-1)"
         id="g240">
        <rect
           id="rect3696"
           width="0.16149"
           fill="#999999"
           x="-29.922"
           height="1.06604"
           stroke-width="0.104544"
           y="-77.2795" />
      </g>
      <g
         transform="scale(-1)"
         id="g243">
        <rect
           id="rect3698"
           width="0.162859"
           fill="#999999"
           x="-40.6296"
           height="1.06604"
           stroke-width="0.104544"
           y="-77.2795" />
      </g>
      <g
         transform="scale(-1)"
         id="g246">
        <rect
           id="rect3670-7"
           width="7.96601"
           fill="#4d4d4d"
           x="-16.3419"
           height="2.681"
           y="-77.4791" />
      </g>
      <g
         transform="scale(-1)"
         id="g249">
        <rect
           opacity="0.2"
           id="rect3672-1"
           width="7.96601"
           fill="#ffffff"
           x="-16.3419"
           height="0.046"
           enable-background="new    "
           y="-77.4791" />
      </g>
      <g
         transform="scale(-1)"
         id="g252">
        <rect
           id="rect3674-8"
           width="7.96601"
           fill="#333333"
           x="-16.3419"
           height="0.798998"
           y="-75.4491" />
      </g>
      <g
         transform="scale(-1)"
         id="g255">
        <rect
           opacity="0.2"
           id="rect3676-1"
           width="7.96601"
           x="-16.3419"
           height="0.032"
           enable-background="new    "
           y="-74.6771" />
      </g>
      <path
         d="m9.53287,77.4792l0,0,0,0l0.0930024,0l0,0c0.0799985,-0.250999,0.135,-0.796003,0.135,-1.075,0,-0.291002,-0.0480002,-0.693,-0.135,-0.955001l0,0,0,0l-1.223,7.2e-06l0,2.03z"
         id="path3678-9"
         fill="#dcdcdc" />
      <path
         d="m15.0969,77.3748l0,0.103997l1.222,0l0,-2.03l-1.223,0c-0.0880006,0.262994,-0.192998,0.658994,-0.192998,0.954,0,0.345996,0.0749952,0.670997,0.193996,0.972z"
         id="path3680-7"
         fill="#dcdcdc" />
      <path
         d="m8.39592,75.343l1.22298,0l0.0069984,0.106006l-1.223,0z"
         id="path3682-4"
         fill="#999999" />
      <path
         d="m16.3129,75.3408l-1.223,0l0.0069984,0.108l1.222,0l-0.0059976,-0.108z"
         id="path3684-0"
         fill="#999999" />
      <g
         transform="scale(-1)"
         id="g262">
        <rect
           opacity="0.15"
           id="rect3686-5"
           width="1.223"
           x="-16.3189"
           height="0.046"
           enable-background="new    "
           y="-74.6911" />
      </g>
      <g
         transform="scale(-1)"
         id="g265">
        <rect
           opacity="0.5"
           id="rect3688-8"
           width="1.223"
           fill="#ffffff"
           x="-16.3189"
           height="0.046"
           enable-background="new    "
           y="-77.4791" />
      </g>
      <g
         transform="scale(-1)"
         id="g268">
        <rect
           opacity="0.15"
           id="rect3690-1"
           width="1.224"
           x="-9.62487"
           height="0.046"
           enable-background="new    "
           y="-74.6911" />
      </g>
      <g
         transform="scale(-1)"
         id="g271">
        <rect
           opacity="0.5"
           id="rect3692-0"
           width="1.224"
           fill="#ffffff"
           x="-9.62487"
           height="0.046"
           enable-background="new    "
           y="-77.4791" />
      </g>
      <line
         id="line3694-8"
         y1="74.6451"
         x1="15.5799"
         fill="none"
         x2="15.5799"
         y2="74.6451" />
      <g
         transform="scale(-1)"
         id="g275">
        <rect
           id="rect3696-8"
           width="0.118"
           fill="#999999"
           x="-8.49488"
           height="0.692"
           y="-75.3431" />
      </g>
      <g
         transform="scale(-1)"
         id="g278">
        <rect
           id="rect3698-8"
           width="0.119"
           fill="#999999"
           x="-16.3189"
           height="0.692"
           y="-75.3431" />
      </g>
      <g
         transform="scale(-1)"
         id="g281">
        <rect
           id="rect604"
           width="7.96601"
           fill="#4d4d4d"
           x="-15.9706"
           height="2.681"
           y="-83.0476" />
      </g>
      <g
         transform="scale(-1)"
         id="g284">
        <rect
           opacity="0.2"
           id="rect606"
           width="7.96601"
           fill="#ffffff"
           x="-15.9706"
           height="0.046"
           enable-background="new    "
           y="-83.0476" />
      </g>
      <g
         transform="scale(-1)"
         id="g287">
        <rect
           id="rect608"
           width="7.96601"
           fill="#333333"
           x="-15.9706"
           height="0.798998"
           y="-81.0176" />
      </g>
      <g
         transform="scale(-1)"
         id="g290">
        <rect
           opacity="0.2"
           id="rect610"
           width="7.96601"
           x="-15.9706"
           height="0.032"
           enable-background="new    "
           y="-80.2456" />
      </g>
      <path
         d="m9.16164,83.0477l0,0,0,0l0.0930024,0l0,0c0.0799985,-0.250999,0.135,-0.796003,0.135,-1.075,0,-0.290995,-0.0480002,-0.693,-0.135,-0.955001l0,0,0,0l-1.223,7.2e-06l0,2.03z"
         id="path612"
         fill="#dcdcdc" />
      <path
         d="m14.7257,82.9433l0,0.103997l1.222,0l0,-2.03l-1.223,0c-0.0880006,0.262994,-0.192998,0.658994,-0.192998,0.954,0,0.345996,0.0749952,0.670997,0.193996,0.972z"
         id="path614"
         fill="#dcdcdc" />
      <path
         d="m8.02462,80.9114l1.22298,0l0.0069984,0.106006l-1.223,0z"
         id="path616"
         fill="#999999" />
      <path
         d="m15.9417,80.9093l-1.223,0l0.0069984,0.108l1.222,0l-0.0059976,-0.108z"
         id="path618"
         fill="#999999" />
      <g
         transform="scale(-1)"
         id="g297">
        <rect
           opacity="0.15"
           id="rect620"
           width="1.223"
           x="-15.9476"
           height="0.046"
           enable-background="new    "
           y="-80.2596" />
      </g>
      <g
         transform="scale(-1)"
         id="g300">
        <rect
           opacity="0.5"
           id="rect622"
           width="1.223"
           fill="#ffffff"
           x="-15.9476"
           height="0.046"
           enable-background="new    "
           y="-83.0476" />
      </g>
      <g
         transform="scale(-1)"
         id="g303">
        <rect
           opacity="0.15"
           id="rect624"
           width="1.224"
           x="-9.25363"
           height="0.046"
           enable-background="new    "
           y="-80.2596" />
      </g>
      <g
         transform="scale(-1)"
         id="g306">
        <rect
           opacity="0.5"
           id="rect626"
           width="1.224"
           fill="#ffffff"
           x="-9.25363"
           height="0.046"
           enable-background="new    "
           y="-83.0476" />
      </g>
      <line
         id="line628"
         y1="80.2136"
         x1="15.2086"
         fill="none"
         x2="15.2086"
         y2="80.2136" />
      <g
         transform="scale(-1)"
         id="g310">
        <rect
           id="rect630"
           width="0.118"
           fill="#999999"
           x="-8.12365"
           height="0.692"
           y="-80.9116" />
      </g>
      <g
         transform="scale(-1)"
         id="g313">
        <rect
           id="rect632"
           width="0.119"
           fill="#999999"
           x="-15.9476"
           height="0.692"
           y="-80.9116" />
      </g>
      <g
         transform="rotate(90)"
         id="g316">
        <rect
           id="rect636"
           width="7.96601"
           fill="#4d4d4d"
           x="74.0095"
           height="2.681"
           y="-25.507" />
      </g>
      <g
         transform="rotate(90)"
         id="g319">
        <rect
           opacity="0.2"
           id="rect638"
           width="7.96601"
           fill="#ffffff"
           x="74.0095"
           height="0.046"
           enable-background="new    "
           y="-25.507" />
      </g>
      <g
         transform="rotate(90)"
         id="g322">
        <rect
           id="rect640"
           width="7.96601"
           fill="#333333"
           x="74.0095"
           height="0.798998"
           y="-23.477" />
      </g>
      <g
         transform="rotate(90)"
         id="g325">
        <rect
           opacity="0.2"
           id="rect642"
           width="7.96601"
           x="74.0095"
           height="0.032"
           enable-background="new    "
           y="-22.705" />
      </g>
      <path
         d="m25.507,80.8186l0,0,0,0,0,-0.0930024,0,0c-0.251,-0.0799992,-0.796003,-0.135,-1.075,-0.135,-0.291,0,-0.693,0.0480024,-0.955001,0.135l0,0,0,0l7.2e-06,1.223l2.03,0z"
         id="path644"
         fill="#dcdcdc" />
      <path
         d="m25.403,75.2544l0.104,0l0,-1.222l-2.03,0l0,1.223c0.262994,0.0879984,0.658994,0.192996,0.954,0.192996,0.345996,0,0.670997,-0.0749952,0.972,-0.193997z"
         id="path646"
         fill="#dcdcdc" />
      <path
         d="m23.371,81.9554l0,-1.22298l0.106006,-0.006984l0,1.223z"
         id="path648"
         fill="#999999" />
      <path
         d="m23.369,74.0383l0,1.223l0.108,-0.006984l0,-1.222l-0.108,0.005976z"
         id="path650"
         fill="#999999" />
      <g
         transform="rotate(90)"
         id="g332">
        <rect
           opacity="0.15"
           id="rect652"
           width="1.223"
           x="74.0325"
           height="0.046"
           enable-background="new    "
           y="-22.719" />
      </g>
      <g
         transform="rotate(90)"
         id="g335">
        <rect
           opacity="0.5"
           id="rect654"
           width="1.223"
           fill="#ffffff"
           x="74.0325"
           height="0.046"
           enable-background="new    "
           y="-25.507" />
      </g>
      <g
         transform="rotate(90)"
         id="g338">
        <rect
           opacity="0.15"
           id="rect656"
           width="1.224"
           x="80.7265"
           height="0.046"
           enable-background="new    "
           y="-22.719" />
      </g>
      <g
         transform="rotate(90)"
         id="g341">
        <rect
           opacity="0.5"
           id="rect658"
           width="1.224"
           fill="#ffffff"
           x="80.7265"
           height="0.046"
           enable-background="new    "
           y="-25.507" />
      </g>
      <line
         id="line660"
         y1="74.7715"
         x1="22.673"
         fill="none"
         x2="22.673"
         y2="74.7715" />
      <g
         transform="rotate(90)"
         id="g345">
        <rect
           id="rect662"
           width="0.118"
           fill="#999999"
           x="81.8565"
           height="0.692"
           y="-23.371" />
      </g>
      <g
         transform="rotate(90)"
         id="g348">
        <rect
           id="rect664"
           width="0.119"
           fill="#999999"
           x="74.0325"
           height="0.692"
           y="-23.371" />
      </g>
      <circle
         id="connector0pin"
         cx="20.3972"
         fill="#ffffff"
         stroke="#999999"
         stroke-width="1.44"
         r="2.88"
         cy="97.1484" />
      <circle
         id="connector1pin"
         cx="34.7785"
         fill="#ffffff"
         stroke="#999999"
         stroke-width="1.44"
         r="2.88"
         cy="97.1484" />
      <g
         id="g792"
         transform="rotate(-90,40.140399,19.795471)">
        <g
           transform="rotate(-90)"
           id="g148">
          <rect
             id="rect2093"
             width="11.4221"
             fill="#103656"
             x="-14.1293"
             stroke-width="0"
             height="4.6482"
             y="43.185101" />
        </g>
        <g
           transform="rotate(-90)"
           id="g151">
          <rect
             id="rect2095"
             width="11.4221"
             fill="#254e89"
             x="-14.1293"
             stroke-width="0"
             height="4.82197"
             y="47.835602" />
        </g>
        <g
           transform="rotate(-90)"
           id="g154">
          <rect
             id="rect2097"
             width="5.5919299"
             fill="#254e89"
             x="-11.2142"
             stroke-width="0"
             height="5.7913899"
             y="47.8951" />
        </g>
        <g
           transform="rotate(-90)"
           id="g157">
          <rect
             id="rect2099"
             width="10.4916"
             fill="#8d8c8c"
             x="-13.6618"
             stroke-width="0"
             height="8.7293997"
             y="43.592098" />
        </g>
        <path
           d="m 51.8093,8.41594 c 0,-2.48805 -1.49986,-4.51309 -3.36097,-4.51309 l 7e-5,9.03515 c 1.86105,-0.0045 3.36097,-2.02729 3.36097,-4.52209 z"
           id="path2101"
           fill="#a0a0a0"
           stroke-width="0.165117" />
        <path
           d="m 45.1035,8.41594 c 0,2.49253 1.49986,4.52209 3.35412,4.52209 L 48.4575,3.90288 c -1.85436,0.00223 -3.35412,2.02055 -3.35412,4.51309 z"
           id="path2103"
           fill="#565656"
           stroke-width="0.165117" />
        <g
           transform="rotate(-90)"
           id="g162">
          <ellipse
             rx="3.5016999"
             id="ellipse2105"
             cx="-8.4182196"
             fill="#383838"
             stroke-width="0"
             cy="48.4575"
             ry="2.6018901" />
        </g>
        <g
           transform="matrix(0,-2.29329,2.29329,0,27.6697,16.5117)"
           id="g165">
          <polygon
             id="polygon2229"
             points="1.57201,7.46143 1.24271,7.43551 1.30446,6.9161 5.81763,6.9799 5.7549,7.4993 5.54321,7.43551 4.82483,8.38562 2.22081,8.38562 "
             fill="#919291" />
        </g>
        <path
           d="m 43.823,3.45786 h 0.75222 l 5e-6,0.339381 v 0.146095 l 0.118884,0.083177 2.06,1.49013 -0.118909,5.758157 -2.06231,1.51487 -0.116572,0.08764 v 0.141605 0.352855 L 43.823,11.7153 V 3.45786 M 43.5303,3.17017 V 13.6618 h 1.33753 v -0.640554 l 2.17891,-1.60251 6e-5,-6.041456 -2.1789,-1.57554 V 3.174671 Z"
           id="path2109"
           fill="#57585a"
           stroke-width="0.165117" />
        <g
           transform="rotate(-90)"
           id="g169">
          <rect
             id="rect166"
             width="4.7063899"
             fill="#8c8c8c"
             x="-10.7692"
             stroke-width="0"
             height="3.441"
             y="52.289501" />
        </g>
        <g
           transform="rotate(-90)"
           id="g360">
          <rect
             id="connector7pin"
             width="5.20506"
             fill="none"
             x="-10.8501"
             height="9.9209499"
             stroke-width="0"
             gorn="0.0.8"
             y="45.811798" />
        </g>
        <path
           d="m 43.823,16.53047 h 0.75222 l 5e-6,0.339381 v 0.146095 l 0.118884,0.08318 2.06,1.49013 -0.118909,5.758157 -2.06231,1.51487 -0.116572,0.08764 v 0.141605 0.352855 L 43.823,24.78791 v -8.25744 m -0.2927,-0.28769 v 10.49163 h 1.33753 v -0.640554 l 2.17891,-1.60251 6e-5,-6.041456 -2.1789,-1.57554 v -0.627069 z"
           id="path3947"
           fill="#57585a"
           stroke-width="0.165117" />
        <path
           d="m 43.669925,-10.90058 h 0.75222 l 5e-6,0.339381 v 0.146095 l 0.118884,0.08318 2.06,1.4901305 -0.118909,5.758157 -2.06231,1.51487 -0.116572,0.08764 v 0.141605 0.35285499 L 43.669925,-2.6431395 V -10.90058 m -0.2927,-0.28769 v 10.49163049 h 1.33753 V -1.3371935 l 2.17891,-1.60251 6e-5,-6.041456 -2.1789,-1.5755405 v -0.627069 z"
           id="path3949"
           fill="#57585a"
           stroke-width="0.165117" />
        <g
           transform="rotate(-90,-7.1983545,-7.2060087)"
           id="g3953">
          <rect
             id="rect3951"
             width="4.7063899"
             fill="#8c8c8c"
             x="-10.7692"
             stroke-width="0"
             height="3.441"
             y="52.289501" />
          <rect
             id="rect3951-5"
             width="4.7063899"
             fill="#8c8c8c"
             x="20.476542"
             stroke-width="0"
             height="3.441"
             y="-55.738792"
             transform="scale(-1)" />
          <rect
             id="rect3951-5-0"
             width="4.7063899"
             fill="#8c8c8c"
             x="-38.301666"
             stroke-width="0"
             height="3.441"
             y="52.297787" />
        </g>
      </g>
      <g
         transform="rotate(90)"
         id="g366">
        <rect
           id="connector9pin"
           width="5.20506"
           fill="none"
           x="22.5418"
           stroke-width="0"
           height="9.92095"
           gorn="0.0.8"
           y="-9.92095" />
      </g>
    </g>
  </g>
</svg>
